HIERARCHY
ROOT Hips
{
	OFFSET -0.179506 -22.333345 2.821913
	CHANNELS 6 Xposition Yposition Zposition Zrotation Yrotation Xrotation 
	JOINT LeftUpLeg
	{
		OFFSET 6.951974 -9.140623 -0.681533
		CHANNELS 3 Zrotation Yrotation Xrotation
		JOINT LeftLeg
		{
			OFFSET 3.427654 -37.519855 -0.449580
			CHANNELS 3 Zrotation Yrotation Xrotation
			JOINT LeftFoot
			{
				OFFSET -1.359570 -39.796059 -4.369333
				CHANNELS 3 Zrotation Yrotation Xrotation
				JOINT LeftToe
				{
					OFFSET 2.635814 -5.579078 11.928840
					CHANNELS 3 Zrotation Yrotation Xrotation
					End Site
					{
						OFFSET 0.000000 0.000000 0.000000
					}
				}
			}
		}
	}
	JOINT RightUpLeg
	{
		OFFSET -6.767048 -9.052170 -0.431982
		CHANNELS 3 Zrotation Yrotation Xrotation
		JOINT RightLeg
		{
			OFFSET -3.829005 -38.256897 -0.885003
			CHANNELS 3 Zrotation Yrotation Xrotation
			JOINT RightFoot
			{
				OFFSET 1.577377 -39.841461 -4.231180
				CHANNELS 3 Zrotation Yrotation Xrotation
				JOINT RightToe
				{
					OFFSET -2.537174 -4.814398 12.334795
					CHANNELS 3 Zrotation Yrotation Xrotation
					End Site
					{
						OFFSET 0.000000 0.000000 0.000000
					}
				}
			}
		}
	}
	JOINT Spine
	{
		OFFSET -0.253288 10.896323 -2.669631
		CHANNELS 3 Zrotation Yrotation Xrotation
		JOINT Spine1
		{
			OFFSET 0.548704 13.518043 0.109247
			CHANNELS 3 Zrotation Yrotation Xrotation
			JOINT Spine2
			{
				OFFSET 0.145701 5.292222 2.542457
				CHANNELS 3 Zrotation Yrotation Xrotation
				JOINT Neck
				{
					OFFSET -0.277840 21.387037 -4.285703
					CHANNELS 3 Zrotation Yrotation Xrotation
					JOINT Head
					{
						OFFSET 0.515184 6.496960 5.134897
						CHANNELS 3 Zrotation Yrotation Xrotation
						End Site
						{
							OFFSET 0.000000 0.000000 0.000000
						}
					}
				}
				JOINT LeftShoulder
				{
					OFFSET 7.884473 12.174932 -3.408961
					CHANNELS 3 Zrotation Yrotation Xrotation
					JOINT LeftArm
					{
						OFFSET 9.097692 3.046888 -0.886815
						CHANNELS 3 Zrotation Yrotation Xrotation
						JOINT LeftForeArm
						{
							OFFSET 25.961220 -1.277207 -2.745643
							CHANNELS 3 Zrotation Yrotation Xrotation
							JOINT LeftHand
							{
								OFFSET 24.923361 0.898606 -0.117091
								CHANNELS 3 Zrotation Yrotation Xrotation
								End Site
								{
									OFFSET 0.000000 0.000000 0.000000
								}
							}
						}
					}
				}
				JOINT RightShoulder
				{
					OFFSET -8.175920 11.883285 -3.861528
					CHANNELS 3 Zrotation Yrotation Xrotation
					JOINT RightArm
					{
						OFFSET -9.601238 3.255117 -0.914307
						CHANNELS 3 Zrotation Yrotation Xrotation
						JOINT RightForeArm
						{
							OFFSET -25.374195 -1.332924 -2.140099
							CHANNELS 3 Zrotation Yrotation Xrotation
							JOINT RightHand
							{
								OFFSET -25.529810 0.777228 -0.555919
								CHANNELS 3 Zrotation Yrotation Xrotation
								End Site
								{
									OFFSET 0.000000 0.000000 0.000000
								}
							}
						}
					}
				}
			}
		}
	}
}
MOTION
Frames: 7
Frame Time: 0.033333
-1.526028 -52.997761 89.535667 -112.318953 1.369045 88.600590 11.559678 4.189727 -8.350420 -5.198441 -0.936585 20.657214 0.727585 10.034584 -20.624490 nan nan nan -13.448690 -12.455136 -11.666343 3.317225 -14.326811 16.856567 4.441020 -7.894944 -5.221894 nan nan nan -5.527605 2.861328 4.211823 7.606844 -5.499996 8.154423 2.218735 -0.280105 -2.431178 1.102364 -18.563684 12.342511 6.107195 -17.812103 9.639476 -18.137273 -9.238195 1.789631 -62.869267 -42.395091 32.109136 108.948948 -83.248934 -85.715260 4.660809 -17.786189 -2.942258 19.871824 2.851976 -4.910812 39.682862 7.448881 -2.450874 -73.961341 52.033114 -63.291596 -1.808562 8.087164 -10.215747 
-1.517620 -53.029671 89.522621 -112.320395 1.364941 88.692754 11.535914 4.172234 -8.439577 -5.156997 -0.872485 20.619483 0.765343 9.977620 -20.608927 nan nan nan -13.451150 -12.421978 -11.743355 3.304013 -14.410037 16.803138 4.452409 -7.939039 -5.093255 nan nan nan -5.479665 2.835189 4.122270 7.603063 -5.500556 8.168284 2.194046 -0.275975 -2.462481 1.148525 -18.565910 12.278192 5.992190 -17.875879 9.657802 -18.076315 -9.164729 1.712472 -62.959290 -42.300761 32.173489 109.942033 -83.303454 -86.636779 4.452407 -17.768156 -2.765346 19.801704 2.824467 -4.918401 39.811627 7.553580 -2.415386 -73.935065 51.916693 -63.140800 -1.758497 8.015290 -10.066771 
-1.532623 -53.018684 89.546638 -112.256391 1.349147 88.719521 11.507313 4.006682 -8.380008 -4.822761 -0.241101 20.495001 0.547083 9.174307 -20.638409 nan nan nan -13.584998 -12.119479 -11.538934 3.220726 -15.358607 16.631916 4.545396 -7.383040 -4.898102 nan nan nan -5.619775 2.970092 4.183678 7.715326 -5.521190 7.934777 2.387799 -0.280304 -2.442161 1.038990 -18.367907 12.858042 6.377758 -18.369501 8.790972 -18.222474 -9.133144 1.588436 -64.765695 -41.573340 33.400116 128.204965 -79.889609 -111.019076 0.068127 -24.086840 -14.391437 19.621420 3.075540 -5.408389 40.139779 6.957242 -1.993203 -74.664386 50.996831 -64.080324 0.717849 8.762345 -10.162728 
-1.526776 -52.989399 89.553772 -112.205675 1.387258 88.658616 11.584590 4.055411 -8.311499 -4.792582 -0.159466 20.524794 0.489148 8.841199 -20.587324 nan nan nan -13.590685 -12.095449 -11.434194 3.071712 -15.572914 16.920850 4.664235 -7.043151 -5.137560 nan nan nan -5.726058 3.030794 4.336036 7.794681 -5.424004 7.534267 2.496198 -0.295315 -1.820886 0.562170 -18.673963 13.483997 6.740263 -19.415244 7.707479 -17.913323 -8.966466 0.978383 -66.016625 -41.429314 34.144283 126.656087 -79.996406 -109.974202 -0.888592 -24.665704 -14.174787 19.721063 3.085088 -6.222438 40.121177 6.663529 -1.919396 -74.859266 50.928295 -64.385884 1.566214 8.828294 -9.279608 
-1.556561 -52.972588 89.557243 -112.262093 1.381005 88.626777 11.582439 4.204954 -8.262459 -4.781478 -0.130174 20.537885 0.528992 8.799146 -20.577400 nan nan nan -13.616151 -12.128791 -11.386759 3.058731 -15.492175 17.008601 4.660149 -6.973752 -5.160427 nan nan nan -5.717905 3.086608 4.240929 7.795565 -5.426823 7.619109 2.506255 -0.290985 -1.816805 0.530290 -18.656897 13.690020 6.807043 -19.391058 7.555236 -18.012536 -9.018177 1.038002 -65.800146 -41.421226 33.974122 127.263517 -80.059196 -110.477153 -0.899644 -24.654278 -13.878099 19.700441 3.122437 -6.101460 40.108573 6.648745 -2.042507 -74.913832 51.006708 -64.463552 1.428917 8.839471 -9.316152 
-1.682898 -52.808517 89.490440 -112.541026 1.305074 87.927343 11.795892 4.801609 -7.247071 -4.740729 0.339013 20.293646 1.169916 8.012907 -20.405133 nan nan nan -13.854057 -12.078999 -10.510596 2.904836 -15.834125 17.171973 4.371863 -5.818786 -5.682942 nan nan nan -5.753571 2.891023 4.959920 7.757726 -5.899559 10.158540 2.229195 0.032172 -4.180833 2.030053 -17.118969 12.630317 5.934317 -20.569976 7.126402 -17.085174 -6.396738 0.409776 -70.060554 -40.988890 35.163532 129.475333 -80.212935 -113.737764 -6.119662 -25.496124 -9.924695 19.457490 2.401161 -6.207551 42.298459 9.291194 -2.329875 -75.156606 49.671965 -64.558029 5.567966 8.812987 -5.707153 
-1.739888 -52.777317 89.469231 -112.611628 1.353800 87.747915 11.911595 4.973056 -6.992216 -4.786088 0.213799 20.174402 1.244035 8.058508 -20.299620 nan nan nan -13.805985 -12.020463 -10.177409 2.959006 -15.506151 16.987931 4.296714 -5.834611 -5.725923 nan nan nan -5.775156 3.214429 4.822103 7.855408 -5.710161 10.556644 2.409589 -0.223497 -4.172684 2.132154 -17.152465 12.448966 5.857608 -20.774409 7.027399 -17.111316 -6.782835 0.435279 -70.148794 -41.070361 35.004958 128.851425 -80.247180 -113.276934 -6.293853 -25.455044 -9.672173 19.296862 2.453362 -6.473268 42.153905 9.085601 -2.608782 -75.022399 49.843760 -64.816807 5.774580 8.804484 -5.703649 
